<?xml version="1.0" standalone="no"?>
<!DOCTYPE svg PUBLIC "-//W3C//DTD SVG 20010904//EN"
 "http://www.w3.org/TR/2001/REC-SVG-20010904/DTD/svg10.dtd">
<svg version="1.0" xmlns="http://www.w3.org/2000/svg"
 width="700.000000pt" height="700.000000pt" viewBox="0 0 700.000000 700.000000"
 preserveAspectRatio="xMidYMid meet">
<metadata>
Created by potrace 1.14, written by Peter Selinger 2001-2017
</metadata>
<g transform="translate(0.000000,700.000000) scale(0.100000,-0.100000)"
fill="#000000" stroke="none">
<path d="M3325 6770 c-166 -22 -294 -60 -445 -133 -306 -148 -556 -410 -689
-723 -31 -74 -75 -214 -85 -274 -3 -19 -8 -46 -10 -60 -16 -85 -23 -297 -12
-360 3 -14 7 -43 10 -65 30 -217 122 -445 253 -627 74 -102 202 -233 303 -308
45 -33 80 -60 78 -61 -1 0 -43 -2 -93 -4 -149 -5 -243 -47 -338 -149 -133
-144 -143 -381 -23 -545 60 -82 164 -151 252 -166 21 -4 42 -9 45 -11 3 -2 2
-34 -3 -71 -4 -37 -10 -95 -13 -128 -3 -33 -7 -71 -10 -85 -2 -14 -6 -54 -10
-90 -7 -73 -13 -128 -20 -180 -3 -19 -7 -60 -10 -90 -3 -30 -8 -73 -10 -95 -3
-22 -7 -62 -10 -90 -2 -27 -7 -61 -9 -75 -3 -14 -8 -56 -11 -95 -5 -62 -8 -88
-21 -185 -1 -14 -6 -54 -9 -90 -4 -36 -8 -76 -10 -90 -3 -14 -8 -58 -11 -97
l-7 -73 1093 0 1092 0 -7 73 c-4 39 -8 83 -10 97 -1 14 -6 54 -10 90 -3 36 -8
76 -10 90 -2 14 -6 54 -10 90 -4 36 -8 76 -10 90 -6 41 -27 232 -40 365 -3 33
-8 71 -10 85 -2 14 -7 52 -10 85 -3 33 -8 76 -10 95 -3 19 -7 62 -11 95 -3 33
-8 74 -10 90 -2 17 -6 61 -10 100 -3 38 -6 74 -7 79 -1 6 9 12 23 14 49 6 136
46 189 86 101 76 158 180 168 305 21 275 -179 480 -464 476 -40 0 -73 2 -73 5
1 3 32 27 70 55 180 128 341 322 443 535 44 91 99 255 112 330 3 19 8 46 11
60 10 44 13 353 4 400 -4 25 -11 63 -14 85 -3 22 -13 65 -21 95 -9 30 -18 63
-20 72 -20 87 -128 297 -208 406 -100 136 -272 296 -397 371 -61 36 -238 121
-252 121 -8 0 -18 4 -24 9 -9 9 -158 50 -203 56 -14 2 -46 8 -71 13 -58 11
-298 12 -375 2z"/>
<path d="M2220 1312 c-31 -3 -68 -36 -323 -290 -159 -158 -300 -304 -314 -326
-113 -174 -23 -412 176 -466 57 -15 3427 -15 3484 1 86 23 152 81 195 169 21
44 26 70 27 130 0 127 -11 141 -353 484 l-299 298 -1279 2 c-704 0 -1295 0
-1314 -2z"/>
</g>
</svg>
